<?xml version="1.0" encoding="utf-8" standalone="no"?>
<!DOCTYPE svg PUBLIC "-//W3C//DTD SVG 1.1//EN"
  "http://www.w3.org/Graphics/SVG/1.1/DTD/svg11.dtd">
<!-- Created with matplotlib (http://matplotlib.org/) -->
<svg height="414pt" version="1.1" viewBox="0 0 519 414" width="519pt" xmlns="http://www.w3.org/2000/svg" xmlns:xlink="http://www.w3.org/1999/xlink">
 <defs>
  <style type="text/css">
*{stroke-linecap:butt;stroke-linejoin:round;stroke-miterlimit:100000;}
  </style>
 </defs>
 <g id="figure_1">
  <g id="patch_1">
   <path d="M 0 414.775937 
L 519.6425 414.775937 
L 519.6425 0 
L 0 0 
z
" style="fill:#ffffff;"/>
  </g>
  <g id="axes_1">
   <g id="patch_2">
    <path d="M 54.59 371.477188 
L 500.99 371.477188 
L 500.99 25.877187 
L 54.59 25.877187 
z
" style="fill:#ffffff;"/>
   </g>
   <g id="line2d_1">
    <path clip-path="url(#p8372c028bd)" d="M 54.59 346.703369 
L 55.4828 271.27646 
L 56.3756 255.712824 
L 57.2684 226.877915 
L 58.1612 209.016097 
L 59.054 199.957187 
L 59.9468 203.256097 
L 60.8396 188.227733 
L 61.7324 170.237915 
L 62.6252 188.507006 
L 63.518 163.733187 
L 64.4108 159.27646 
L 65.3036 140.978278 
L 66.1964 135.625551 
L 67.0892 128.667006 
L 67.982 132.704824 
L 68.8748 124.163733 
L 69.7676 121.13246 
L 70.6604 125.170278 
L 71.5532 98.831369 
L 72.446 102.293187 
L 73.3388 77.088824 
L 74.2316 76.856097 
L 75.1244 78.834278 
L 76.0172 81.976097 
L 76.91 77.810278 
L 77.8028 77.833551 
L 78.6956 75.739006 
L 79.5884 73.266278 
L 80.4812 77.827733 
L 81.374 76.832824 
L 82.2668 74.610278 
L 83.1596 74.02846 
L 84.0524 77.309915 
L 84.9452 76.105551 
L 85.838 74.040097 
L 86.7308 83.558642 
L 87.6236 74.575369 
L 88.5164 75.971733 
L 89.4092 71.485915 
L 90.302 77.693915 
L 91.1948 74.866278 
L 92.0876 78.18846 
L 92.9804 83.488824 
L 93.8732 78.066278 
L 94.766 74.022642 
L 95.6588 73.190642 
L 96.5516 76.623369 
L 97.4444 80.981188 
L 98.3372 79.235733 
L 99.23 75.05246 
L 100.1228 73.848097 
L 101.0156 73.184824 
L 101.9084 77.304097 
L 102.8012 77.589188 
L 103.694 79.229915 
L 104.5868 75.401551 
L 105.4796 74.528824 
L 106.3724 75.017551 
L 107.2652 74.662642 
L 108.158 74.843006 
L 109.0508 75.971733 
L 109.9436 76.390642 
L 110.8364 74.715006 
L 111.7292 73.859733 
L 112.622 75.750642 
L 113.5148 74.982642 
L 114.4076 86.781915 
L 115.3004 78.752824 
L 116.1932 74.790642 
L 117.086 82.528824 
L 117.9788 77.478642 
L 118.8716 81.819006 
L 119.7644 74.866278 
L 120.6572 79.858278 
L 121.55 74.912824 
L 122.4428 90.034278 
L 123.3356 75.087369 
L 124.2284 78.333915 
L 125.1212 74.191369 
L 126.014 73.801551 
L 126.9068 77.86846 
L 127.7996 77.926642 
L 128.6924 71.195006 
L 129.5852 74.453187 
L 130.478 75.797188 
L 131.3708 80.445915 
L 132.2636 75.599369 
L 133.1564 78.351369 
L 134.0492 76.768824 
L 134.942 81.365188 
L 135.8348 72.195733 
L 136.7276 75.122278 
L 137.6204 73.458278 
L 138.5132 72.306278 
L 139.406 81.219733 
L 140.2988 77.245915 
L 141.1916 75.203733 
L 142.0844 74.395006 
L 142.9772 75.896097 
L 143.87 75.750642 
L 144.7628 76.867733 
L 145.6556 74.918642 
L 146.5484 78.811006 
L 147.4412 76.163733 
L 148.334 76.181188 
L 149.2268 81.976097 
L 150.1196 74.109915 
L 151.0124 74.179733 
L 151.9052 77.897551 
L 152.798 73.883006 
L 153.6908 74.79646 
L 154.5836 76.053188 
L 155.4764 71.933915 
L 156.3692 75.709915 
L 157.262 73.999369 
L 158.1548 77.525188 
L 159.0476 82.790642 
L 159.9404 80.10846 
L 160.8332 79.939733 
L 161.726 80.114278 
L 162.6188 78.601551 
L 163.5116 74.656824 
L 164.4044 80.248097 
L 165.2972 76.041551 
L 166.19 74.703369 
L 167.0828 73.987733 
L 167.9756 74.371733 
L 168.8684 77.298278 
L 169.7612 74.680097 
L 170.654 73.859733 
L 171.5468 77.577551 
L 172.4396 73.312824 
L 173.3324 76.006642 
L 174.2252 74.418278 
L 175.118 74.971006 
L 176.0108 73.58046 
L 176.9036 77.379733 
L 177.7964 78.008097 
L 178.6892 72.882278 
L 179.582 75.104824 
L 180.4748 79.421915 
L 181.3676 75.808824 
L 182.2604 74.528824 
L 184.046 80.370278 
L 184.9388 76.483733 
L 185.8316 77.437915 
L 186.7244 75.826278 
L 187.6172 81.173188 
L 188.51 82.773187 
L 189.4028 76.635006 
L 190.2956 72.579733 
L 191.1884 77.344824 
L 192.0812 74.499733 
L 192.974 73.213915 
L 194.7596 77.519369 
L 195.6524 75.721551 
L 196.5452 75.715733 
L 197.438 83.872824 
L 198.3308 75.704097 
L 199.2236 75.43646 
L 200.1164 86.310642 
L 201.0092 74.66846 
L 201.902 74.02846 
L 202.7948 80.056097 
L 203.6876 75.506278 
L 205.4732 78.38046 
L 206.366 74.34846 
L 207.2588 76.152097 
L 208.1516 78.269915 
L 209.0444 81.696824 
L 209.9372 73.167369 
L 210.83 74.459006 
L 211.7228 73.00446 
L 212.6156 76.07646 
L 213.5084 81.120824 
L 214.4012 74.685915 
L 215.294 80.056097 
L 216.1868 72.68446 
L 217.0796 73.376824 
L 217.9724 73.58046 
L 218.8652 77.589188 
L 219.758 78.450278 
L 220.6508 73.842278 
L 221.5436 75.232824 
L 222.4364 73.394278 
L 223.3292 76.797915 
L 224.222 76.233551 
L 225.1148 76.070642 
L 226.0076 73.481551 
L 226.9004 74.994278 
L 227.7932 80.515733 
L 228.686 79.544097 
L 229.5788 88.882278 
L 230.4716 73.080097 
L 231.3644 74.040097 
L 232.2572 74.517188 
L 233.15 75.622642 
L 234.0428 77.205188 
L 234.9356 76.07646 
L 235.8284 77.583369 
L 236.7212 76.26846 
L 237.614 75.43646 
L 238.5068 76.58846 
L 239.3996 75.163006 
L 240.2924 79.14846 
L 241.1852 74.505551 
L 242.078 74.464824 
L 242.9708 75.913551 
L 243.8636 74.395006 
L 244.7564 81.38846 
L 245.6492 79.497551 
L 246.542 74.47646 
L 247.4348 85.10046 
L 248.3276 80.678642 
L 249.2204 73.661915 
L 250.1132 71.520824 
L 251.006 76.413915 
L 251.8988 80.515733 
L 252.7916 83.965915 
L 253.6844 85.403006 
L 254.5772 81.510642 
L 255.47 74.744097 
L 256.3628 75.232824 
L 257.2556 76.099733 
L 258.1484 74.720824 
L 259.0412 74.784824 
L 259.934 72.824097 
L 260.8268 76.274278 
L 261.7196 74.517188 
L 262.6124 75.576097 
L 263.5052 70.863369 
L 264.398 77.752097 
L 265.2908 75.581915 
L 266.1836 77.990642 
L 267.0764 75.849551 
L 267.9692 74.534642 
L 268.862 79.375369 
L 269.7548 73.202278 
L 270.6476 78.531733 
L 271.5404 76.902642 
L 272.4332 76.733915 
L 273.326 74.744097 
L 274.2188 76.14046 
L 275.1116 76.46046 
L 276.0044 79.963006 
L 276.8972 76.850278 
L 277.79 78.333915 
L 278.6828 75.733188 
L 279.5756 75.861187 
L 280.4684 76.285915 
L 281.3612 77.152824 
L 282.254 72.486642 
L 283.1468 74.34846 
L 284.0396 83.843733 
L 284.9324 75.232824 
L 285.8252 84.541915 
L 286.718 74.377551 
L 287.6108 75.459733 
L 288.5036 75.989188 
L 289.3964 73.696824 
L 290.2892 74.267006 
L 291.182 75.093188 
L 292.0748 81.330278 
L 292.9676 76.152097 
L 293.8604 74.918642 
L 294.7532 80.614642 
L 295.646 77.80446 
L 296.5388 74.203006 
L 297.4316 74.22046 
L 298.3244 77.880097 
L 299.2172 79.200824 
L 300.11 74.674278 
L 301.0028 74.086642 
L 301.8956 73.789915 
L 302.7884 79.096097 
L 303.6812 78.514278 
L 304.574 75.698278 
L 305.4668 74.505551 
L 306.3596 77.106278 
L 307.2524 79.293915 
L 308.1452 78.578278 
L 309.038 77.449551 
L 309.9308 75.680824 
L 310.8236 73.272097 
L 311.7164 76.018278 
L 312.6092 76.925915 
L 313.502 74.546278 
L 314.3948 70.939006 
L 315.2876 70.962278 
L 316.1804 76.955006 
L 317.0732 73.737551 
L 317.966 73.149915 
L 318.8588 72.067733 
L 319.7516 79.759369 
L 320.6444 75.069915 
L 321.5372 79.538278 
L 322.43 80.987006 
L 323.3228 82.133187 
L 324.2156 73.987733 
L 325.1084 73.32446 
L 326.0012 75.279369 
L 326.894 76.949188 
L 327.7868 73.77246 
L 328.6796 74.715006 
L 329.5724 74.895369 
L 330.4652 73.90046 
L 331.358 69.22846 
L 332.2508 77.059733 
L 333.1436 83.576097 
L 334.0364 75.238642 
L 334.9292 75.267733 
L 335.822 76.082278 
L 336.7148 79.34046 
L 337.6076 81.365188 
L 338.5004 75.424824 
L 339.3932 72.038642 
L 341.1788 74.034278 
L 342.0716 76.90846 
L 342.9644 77.333187 
L 343.8572 75.250278 
L 344.75 73.760824 
L 345.6428 75.960097 
L 346.5356 79.131006 
L 347.4284 79.131006 
L 348.3212 78.066278 
L 349.214 76.064824 
L 350.1068 81.32446 
L 350.9996 75.616824 
L 351.8924 75.669187 
L 352.7852 80.643733 
L 353.678 74.528824 
L 354.5708 75.192097 
L 355.4636 73.557187 
L 356.3564 79.40446 
L 357.2492 75.581915 
L 358.142 76.355733 
L 359.0348 76.664097 
L 359.9276 75.145551 
L 360.8204 78.624824 
L 361.7132 79.369551 
L 363.4988 77.897551 
L 364.3916 73.487369 
L 365.2844 80.742642 
L 366.1772 83.419006 
L 367.07 75.698278 
L 367.9628 79.899006 
L 368.8556 75.878642 
L 369.7484 80.539006 
L 370.6412 73.586278 
L 371.534 79.515006 
L 372.4268 80.056097 
L 373.3196 76.448824 
L 374.2124 75.506278 
L 375.1052 77.74046 
L 375.998 78.514278 
L 376.8908 74.546278 
L 377.7836 76.221915 
L 378.6764 78.31646 
L 379.5692 75.663369 
L 380.462 74.424097 
L 381.3548 76.14046 
L 382.2476 77.309915 
L 383.1404 83.971733 
L 384.0332 82.395006 
L 384.926 75.040824 
L 385.8188 75.576097 
L 386.7116 74.953551 
L 387.6044 79.392824 
L 388.4972 77.199369 
L 389.39 73.091733 
L 390.2828 74.075006 
L 391.1756 78.427006 
L 392.0684 77.339006 
L 392.9612 74.680097 
L 393.854 75.232824 
L 394.7468 76.809551 
L 395.6396 75.448097 
L 396.5324 75.285187 
L 397.4252 77.734642 
L 398.318 76.751369 
L 399.2108 75.471369 
L 400.1036 75.779733 
L 400.9964 75.424824 
L 401.8892 73.621187 
L 402.782 74.831369 
L 403.6748 79.439369 
L 404.5676 75.82046 
L 405.4604 73.807369 
L 406.3532 75.657551 
L 407.246 77.897551 
L 408.1388 77.152824 
L 409.0316 76.553551 
L 409.9244 73.51646 
L 410.8172 76.745551 
L 411.71 77.077188 
L 412.6028 76.437188 
L 413.4956 79.043733 
L 414.3884 78.205915 
L 415.2812 77.147006 
L 416.174 85.61246 
L 417.0668 82.528824 
L 417.9596 78.44446 
L 418.8524 75.37246 
L 419.7452 75.744824 
L 420.638 75.477188 
L 421.5308 76.059006 
L 422.4236 75.139733 
L 423.3164 82.331006 
L 424.2092 78.264097 
L 425.102 76.902642 
L 425.9948 74.34846 
L 426.8876 80.376097 
L 428.6732 75.302642 
L 429.566 76.600097 
L 430.4588 73.784097 
L 431.3516 73.638642 
L 432.2444 82.278642 
L 433.1372 72.975369 
L 434.03 82.226278 
L 434.9228 79.85246 
L 435.8156 78.613187 
L 436.7084 77.600824 
L 437.6012 76.995733 
L 438.494 74.92446 
L 439.3868 76.699006 
L 440.2796 82.86046 
L 441.1724 73.179006 
L 442.0652 72.539006 
L 442.958 76.925915 
L 444.7436 72.189915 
L 445.6364 73.272097 
L 446.5292 75.18046 
L 447.422 73.179006 
L 448.3148 72.603006 
L 449.2076 76.687369 
L 450.1004 78.869188 
L 450.9932 77.10046 
L 451.886 74.208824 
L 452.7788 82.60446 
L 453.6716 76.437187 
L 454.5644 75.517915 
L 455.4572 81.691006 
L 456.35 80.015369 
L 457.2428 74.866278 
L 458.1356 82.121551 
L 459.0284 72.672824 
L 459.9212 76.018278 
L 460.814 76.821187 
L 461.7068 73.96446 
L 462.5996 78.037187 
L 463.4924 75.942642 
L 464.3852 74.773188 
L 465.278 77.86846 
L 466.1708 74.883733 
L 467.0636 79.805915 
L 467.9564 76.693188 
L 468.8492 80.114278 
L 469.742 76.221915 
L 470.6348 76.745551 
L 471.5276 80.696097 
L 472.4204 73.778278 
L 473.3132 79.136824 
L 474.206 76.425551 
L 475.0988 76.047369 
L 475.9916 74.802278 
L 476.8844 88.347006 
L 477.7772 75.075733 
L 478.67 75.343369 
L 479.5628 73.877188 
L 480.4556 78.374642 
L 482.2412 73.510642 
L 483.134 79.003006 
L 484.0268 75.686642 
L 484.9196 75.50046 
L 485.8124 74.406642 
L 486.7052 79.933915 
L 487.598 74.482278 
L 488.4908 77.327369 
L 489.3836 74.86046 
L 490.2764 77.944097 
L 491.1692 74.214642 
L 492.062 75.471369 
L 492.9548 74.907006 
L 493.8476 79.840824 
L 494.7404 77.693915 
L 495.6332 75.995006 
L 496.526 77.821915 
L 497.4188 80.213188 
L 498.3116 78.374642 
L 499.2044 79.427733 
L 500.0972 77.339006 
L 500.0972 77.339006 
" style="fill:none;stroke:#ff0000;stroke-linecap:square;"/>
   </g>
   <g id="line2d_2">
    <path clip-path="url(#p8372c028bd)" d="M 54.59 164.117188 
L 55.4828 164.117188 
L 56.3756 160.277188 
L 57.2684 165.513551 
L 58.1612 151.899006 
L 59.054 126.415369 
L 59.9468 123.971733 
L 60.8396 118.735369 
L 61.7324 106.517188 
L 62.6252 106.517188 
L 63.518 89.411733 
L 65.3036 89.411733 
L 66.1964 86.619006 
L 67.0892 66.371733 
L 67.982 68.466278 
L 68.8748 68.466278 
L 69.7676 72.655369 
L 70.6604 62.531733 
L 71.5532 62.531733 
L 72.446 63.229915 
L 73.3388 55.899006 
L 74.2316 61.135369 
L 75.1244 61.135369 
L 76.0172 62.531733 
L 76.91 59.040824 
L 77.8028 59.040824 
L 78.6956 56.248097 
L 79.5884 48.917188 
L 80.4812 48.917188 
L 81.374 56.248097 
L 82.2668 53.106278 
L 83.1596 53.106278 
L 84.0524 57.295369 
L 84.9452 54.153551 
L 85.838 54.153551 
L 86.7308 54.851733 
L 87.6236 57.993551 
L 88.5164 57.64446 
L 89.4092 52.408097 
L 90.302 57.64446 
L 91.1948 51.011733 
L 92.0876 58.342642 
L 92.9804 51.709915 
L 93.8732 54.502642 
L 95.6588 53.80446 
L 96.5516 58.342642 
L 97.4444 57.64446 
L 98.3372 56.597188 
L 99.23 56.597188 
L 100.1228 49.96446 
L 101.0156 49.96446 
L 101.9084 53.455369 
L 102.8012 53.455369 
L 103.694 51.011733 
L 112.622 51.011733 
L 113.5148 54.851733 
L 114.4076 57.295369 
L 115.3004 59.040824 
L 116.1932 59.040824 
L 117.086 57.295369 
L 117.9788 55.899006 
L 118.8716 62.531733 
L 119.7644 62.531733 
L 120.6572 55.549915 
L 121.55 55.549915 
L 122.4428 63.229915 
L 123.3356 55.899006 
L 124.2284 55.899006 
L 125.1212 55.200824 
L 126.014 53.106278 
L 126.9068 47.520824 
L 127.7996 48.219006 
L 129.5852 48.219006 
L 130.478 52.408097 
L 134.0492 52.408097 
L 134.942 56.946278 
L 135.8348 51.011733 
L 137.6204 51.011733 
L 138.5132 51.360824 
L 139.406 56.946278 
L 140.2988 56.946278 
L 142.0844 55.549915 
L 142.9772 47.869915 
L 143.87 47.869915 
L 144.7628 55.200824 
L 146.5484 55.200824 
L 147.4412 54.851733 
L 148.334 53.80446 
L 149.2268 53.80446 
L 150.1196 53.455369 
L 151.0124 50.662642 
L 154.5836 50.662642 
L 155.4764 56.946278 
L 156.3692 56.946278 
L 157.262 52.059006 
L 161.726 52.059006 
L 162.6188 55.549915 
L 163.5116 55.549915 
L 164.4044 56.248097 
L 166.19 56.248097 
L 167.0828 51.360824 
L 167.9756 53.80446 
L 168.8684 50.662642 
L 169.7612 55.899006 
L 170.654 55.899006 
L 171.5468 47.171733 
L 172.4396 52.757188 
L 173.3324 52.757188 
L 174.2252 57.295369 
L 175.118 56.597188 
L 176.0108 56.597188 
L 176.9036 51.709915 
L 177.7964 51.709915 
L 178.6892 57.64446 
L 179.582 51.709915 
L 185.8316 51.709915 
L 186.7244 52.757188 
L 187.6172 54.851733 
L 188.51 58.342642 
L 189.4028 57.295369 
L 190.2956 57.295369 
L 191.1884 61.135369 
L 192.0812 60.088097 
L 192.974 59.389915 
L 193.8668 59.389915 
L 194.7596 60.088097 
L 195.6524 60.088097 
L 196.5452 53.455369 
L 197.438 53.455369 
L 198.3308 57.295369 
L 199.2236 59.739006 
L 200.1164 56.597188 
L 201.0092 51.360824 
L 203.6876 51.360824 
L 204.5804 53.455369 
L 205.4732 53.455369 
L 206.366 54.851733 
L 207.2588 54.851733 
L 208.1516 51.011733 
L 209.0444 52.408097 
L 211.7228 52.408097 
L 212.6156 47.171733 
L 213.5084 47.171733 
L 214.4012 52.408097 
L 215.294 52.408097 
L 216.1868 48.219006 
L 217.0796 53.455369 
L 220.6508 53.455369 
L 221.5436 56.946278 
L 222.4364 56.946278 
L 223.3292 56.248097 
L 224.222 51.709915 
L 226.0076 51.709915 
L 226.9004 48.568097 
L 228.686 48.568097 
L 229.5788 51.360824 
L 234.0428 51.360824 
L 234.9356 56.946278 
L 235.8284 61.135369 
L 236.7212 57.295369 
L 237.614 55.899006 
L 238.5068 55.899006 
L 239.3996 59.389915 
L 240.2924 57.993551 
L 241.1852 57.993551 
L 242.078 57.295369 
L 242.9708 57.993551 
L 243.8636 55.899006 
L 246.542 55.899006 
L 247.4348 53.455369 
L 248.3276 50.313551 
L 251.006 50.313551 
L 251.8988 58.342642 
L 254.5772 58.342642 
L 255.47 56.248097 
L 256.3628 56.248097 
L 257.2556 58.342642 
L 258.1484 58.342642 
L 259.0412 46.822642 
L 259.934 46.822642 
L 260.8268 45.426278 
L 261.7196 57.64446 
L 262.6124 53.455369 
L 263.5052 46.822642 
L 264.398 53.455369 
L 265.2908 56.248097 
L 266.1836 55.200824 
L 267.0764 60.437188 
L 267.9692 46.12446 
L 268.862 50.313551 
L 272.4332 50.313551 
L 273.326 57.295369 
L 274.2188 57.295369 
L 275.1116 53.455369 
L 276.0044 62.531733 
L 276.8972 56.946278 
L 277.79 57.295369 
L 278.6828 56.946278 
L 279.5756 56.946278 
L 280.4684 57.295369 
L 281.3612 56.248097 
L 282.254 55.549915 
L 283.1468 56.248097 
L 285.8252 56.248097 
L 286.718 52.059006 
L 287.6108 56.597188 
L 289.3964 56.597188 
L 290.2892 58.691733 
L 291.182 60.437188 
L 292.0748 55.899006 
L 292.9676 46.822642 
L 293.8604 46.822642 
L 294.7532 59.739006 
L 295.646 56.597188 
L 296.5388 59.739006 
L 297.4316 57.993551 
L 298.3244 57.993551 
L 299.2172 56.248097 
L 300.11 56.597188 
L 301.8956 56.597188 
L 302.7884 50.313551 
L 306.3596 50.313551 
L 307.2524 58.342642 
L 308.1452 55.200824 
L 309.038 55.200824 
L 309.9308 56.597188 
L 310.8236 58.342642 
L 311.7164 58.342642 
L 312.6092 52.757188 
L 313.502 52.757188 
L 314.3948 44.029915 
L 316.1804 44.029915 
L 317.0732 49.96446 
L 317.966 52.757188 
L 318.8588 52.408097 
L 319.7516 52.757188 
L 320.6444 49.266278 
L 321.5372 52.757188 
L 322.43 51.709915 
L 323.3228 58.691733 
L 324.2156 58.691733 
L 325.1084 57.64446 
L 326.0012 57.64446 
L 326.894 54.851733 
L 329.5724 54.851733 
L 330.4652 54.153551 
L 331.358 48.568097 
L 332.2508 54.851733 
L 333.1436 56.248097 
L 334.0364 56.248097 
L 334.9292 53.106278 
L 335.822 55.899006 
L 336.7148 55.549915 
L 337.6076 55.549915 
L 338.5004 53.80446 
L 340.286 53.80446 
L 341.1788 51.709915 
L 342.0716 53.80446 
L 342.9644 53.80446 
L 343.8572 50.313551 
L 345.6428 50.313551 
L 346.5356 51.360824 
L 347.4284 51.360824 
L 348.3212 51.709915 
L 349.214 51.709915 
L 350.1068 54.153551 
L 350.9996 56.248097 
L 351.8924 56.248097 
L 352.7852 57.295369 
L 353.678 53.455369 
L 354.5708 53.455369 
L 355.4636 57.64446 
L 356.3564 59.739006 
L 357.2492 58.342642 
L 358.142 58.342642 
L 359.0348 56.946278 
L 359.9276 56.946278 
L 360.8204 51.011733 
L 361.7132 51.011733 
L 362.606 54.502642 
L 363.4988 55.200824 
L 367.07 55.200824 
L 367.9628 60.088097 
L 368.8556 47.869915 
L 369.7484 57.64446 
L 370.6412 56.248097 
L 371.534 52.408097 
L 374.2124 52.408097 
L 375.1052 45.426278 
L 375.998 45.426278 
L 376.8908 49.615369 
L 380.462 49.615369 
L 381.3548 53.455369 
L 382.2476 55.899006 
L 383.1404 55.899006 
L 384.0332 55.200824 
L 384.926 55.200824 
L 385.8188 59.389915 
L 387.6044 59.389915 
L 388.4972 55.549915 
L 393.854 55.549915 
L 394.7468 59.389915 
L 395.6396 61.833551 
L 396.5324 53.455369 
L 399.2108 53.455369 
L 400.1036 53.106278 
L 400.9964 55.200824 
L 401.8892 56.248097 
L 404.5676 56.248097 
L 405.4604 60.088097 
L 406.3532 55.549915 
L 407.246 59.040824 
L 408.1388 58.342642 
L 409.0316 59.389915 
L 409.9244 59.739006 
L 410.8172 59.739006 
L 411.71 59.389915 
L 412.6028 63.229915 
L 413.4956 62.531733 
L 414.3884 56.946278 
L 417.0668 56.946278 
L 417.9596 57.295369 
L 418.8524 59.389915 
L 419.7452 60.088097 
L 420.638 61.833551 
L 421.5308 49.96446 
L 423.3164 61.833551 
L 424.2092 55.200824 
L 425.102 55.200824 
L 425.9948 57.295369 
L 426.8876 57.295369 
L 427.7804 56.946278 
L 428.6732 53.106278 
L 429.566 52.757188 
L 431.3516 52.757188 
L 432.2444 56.946278 
L 434.03 56.946278 
L 434.9228 57.993551 
L 435.8156 61.135369 
L 436.7084 59.739006 
L 437.6012 58.691733 
L 438.494 59.040824 
L 439.3868 59.040824 
L 440.2796 56.597188 
L 441.1724 53.455369 
L 442.958 53.455369 
L 443.8508 48.917188 
L 444.7436 48.917188 
L 445.6364 47.869915 
L 449.2076 47.869915 
L 450.1004 56.248097 
L 450.9932 57.295369 
L 452.7788 57.295369 
L 453.6716 53.80446 
L 454.5644 56.248097 
L 455.4572 57.295369 
L 456.35 55.549915 
L 457.2428 55.549915 
L 458.1356 53.106278 
L 459.0284 53.106278 
L 459.9212 57.993551 
L 460.814 57.993551 
L 461.7068 54.502642 
L 462.5996 55.549915 
L 463.4924 52.408097 
L 464.3852 52.408097 
L 465.278 52.757188 
L 466.1708 52.059006 
L 467.0636 56.248097 
L 467.9564 56.597188 
L 468.8492 61.48446 
L 469.742 48.568097 
L 470.6348 48.568097 
L 471.5276 57.64446 
L 472.4204 53.106278 
L 473.3132 57.64446 
L 474.206 57.64446 
L 475.9916 52.059006 
L 478.67 52.059006 
L 479.5628 47.520824 
L 480.4556 47.520824 
L 481.3484 52.059006 
L 482.2412 52.059006 
L 483.134 47.171733 
L 484.0268 53.80446 
L 484.9196 58.691733 
L 485.8124 55.200824 
L 486.7052 61.48446 
L 487.598 55.200824 
L 488.4908 55.200824 
L 489.3836 55.899006 
L 490.2764 54.851733 
L 492.9548 54.851733 
L 493.8476 49.615369 
L 494.7404 49.615369 
L 496.526 57.993551 
L 497.4188 54.502642 
L 498.3116 55.899006 
L 500.0972 55.899006 
L 500.0972 55.899006 
" style="fill:none;stroke:#008000;stroke-linecap:square;"/>
   </g>
   <g id="patch_3">
    <path d="M 54.59 25.877187 
L 500.99 25.877187 
" style="fill:none;stroke:#000000;stroke-linecap:square;stroke-linejoin:miter;"/>
   </g>
   <g id="patch_4">
    <path d="M 500.99 371.477188 
L 500.99 25.877187 
" style="fill:none;stroke:#000000;stroke-linecap:square;stroke-linejoin:miter;"/>
   </g>
   <g id="patch_5">
    <path d="M 54.59 371.477188 
L 500.99 371.477188 
" style="fill:none;stroke:#000000;stroke-linecap:square;stroke-linejoin:miter;"/>
   </g>
   <g id="patch_6">
    <path d="M 54.59 371.477188 
L 54.59 25.877187 
" style="fill:none;stroke:#000000;stroke-linecap:square;stroke-linejoin:miter;"/>
   </g>
   <g id="matplotlib.axis_1">
    <g id="xtick_1">
     <g id="line2d_3">
      <defs>
       <path d="M 0 0 
L 0 -4 
" id="m5e2b7caad4" style="stroke:#000000;stroke-width:0.5;"/>
      </defs>
      <g>
       <use style="stroke:#000000;stroke-width:0.5;" x="54.59" xlink:href="#m5e2b7caad4" y="371.4771875"/>
      </g>
     </g>
     <g id="line2d_4">
      <defs>
       <path d="M 0 0 
L 0 4 
" id="m13196267ca" style="stroke:#000000;stroke-width:0.5;"/>
      </defs>
      <g>
       <use style="stroke:#000000;stroke-width:0.5;" x="54.59" xlink:href="#m13196267ca" y="25.8771875"/>
      </g>
     </g>
     <g id="text_1">
      <!-- 0 -->
      <defs>
       <path d="M 31.78125 66.40625 
Q 24.171875 66.40625 20.328125 58.90625 
Q 16.5 51.421875 16.5 36.375 
Q 16.5 21.390625 20.328125 13.890625 
Q 24.171875 6.390625 31.78125 6.390625 
Q 39.453125 6.390625 43.28125 13.890625 
Q 47.125 21.390625 47.125 36.375 
Q 47.125 51.421875 43.28125 58.90625 
Q 39.453125 66.40625 31.78125 66.40625 
M 31.78125 74.21875 
Q 44.046875 74.21875 50.515625 64.515625 
Q 56.984375 54.828125 56.984375 36.375 
Q 56.984375 17.96875 50.515625 8.265625 
Q 44.046875 -1.421875 31.78125 -1.421875 
Q 19.53125 -1.421875 13.0625 8.265625 
Q 6.59375 17.96875 6.59375 36.375 
Q 6.59375 54.828125 13.0625 64.515625 
Q 19.53125 74.21875 31.78125 74.21875 
" id="BitstreamVeraSans-Roman-30"/>
      </defs>
      <g transform="translate(50.7725 384.5953125)scale(0.12 -0.12)">
       <use xlink:href="#BitstreamVeraSans-Roman-30"/>
      </g>
     </g>
    </g>
    <g id="xtick_2">
     <g id="line2d_5">
      <g>
       <use style="stroke:#000000;stroke-width:0.5;" x="143.87" xlink:href="#m5e2b7caad4" y="371.4771875"/>
      </g>
     </g>
     <g id="line2d_6">
      <g>
       <use style="stroke:#000000;stroke-width:0.5;" x="143.87" xlink:href="#m13196267ca" y="25.8771875"/>
      </g>
     </g>
     <g id="text_2">
      <!-- 100 -->
      <defs>
       <path d="M 12.40625 8.296875 
L 28.515625 8.296875 
L 28.515625 63.921875 
L 10.984375 60.40625 
L 10.984375 69.390625 
L 28.421875 72.90625 
L 38.28125 72.90625 
L 38.28125 8.296875 
L 54.390625 8.296875 
L 54.390625 0 
L 12.40625 0 
z
" id="BitstreamVeraSans-Roman-31"/>
      </defs>
      <g transform="translate(132.4175 384.5953125)scale(0.12 -0.12)">
       <use xlink:href="#BitstreamVeraSans-Roman-31"/>
       <use x="63.623046875" xlink:href="#BitstreamVeraSans-Roman-30"/>
       <use x="127.24609375" xlink:href="#BitstreamVeraSans-Roman-30"/>
      </g>
     </g>
    </g>
    <g id="xtick_3">
     <g id="line2d_7">
      <g>
       <use style="stroke:#000000;stroke-width:0.5;" x="233.15" xlink:href="#m5e2b7caad4" y="371.4771875"/>
      </g>
     </g>
     <g id="line2d_8">
      <g>
       <use style="stroke:#000000;stroke-width:0.5;" x="233.15" xlink:href="#m13196267ca" y="25.8771875"/>
      </g>
     </g>
     <g id="text_3">
      <!-- 200 -->
      <defs>
       <path d="M 19.1875 8.296875 
L 53.609375 8.296875 
L 53.609375 0 
L 7.328125 0 
L 7.328125 8.296875 
Q 12.9375 14.109375 22.625 23.890625 
Q 32.328125 33.6875 34.8125 36.53125 
Q 39.546875 41.84375 41.421875 45.53125 
Q 43.3125 49.21875 43.3125 52.78125 
Q 43.3125 58.59375 39.234375 62.25 
Q 35.15625 65.921875 28.609375 65.921875 
Q 23.96875 65.921875 18.8125 64.3125 
Q 13.671875 62.703125 7.8125 59.421875 
L 7.8125 69.390625 
Q 13.765625 71.78125 18.9375 73 
Q 24.125 74.21875 28.421875 74.21875 
Q 39.75 74.21875 46.484375 68.546875 
Q 53.21875 62.890625 53.21875 53.421875 
Q 53.21875 48.921875 51.53125 44.890625 
Q 49.859375 40.875 45.40625 35.40625 
Q 44.1875 33.984375 37.640625 27.21875 
Q 31.109375 20.453125 19.1875 8.296875 
" id="BitstreamVeraSans-Roman-32"/>
      </defs>
      <g transform="translate(221.6975 384.5953125)scale(0.12 -0.12)">
       <use xlink:href="#BitstreamVeraSans-Roman-32"/>
       <use x="63.623046875" xlink:href="#BitstreamVeraSans-Roman-30"/>
       <use x="127.24609375" xlink:href="#BitstreamVeraSans-Roman-30"/>
      </g>
     </g>
    </g>
    <g id="xtick_4">
     <g id="line2d_9">
      <g>
       <use style="stroke:#000000;stroke-width:0.5;" x="322.43" xlink:href="#m5e2b7caad4" y="371.4771875"/>
      </g>
     </g>
     <g id="line2d_10">
      <g>
       <use style="stroke:#000000;stroke-width:0.5;" x="322.43" xlink:href="#m13196267ca" y="25.8771875"/>
      </g>
     </g>
     <g id="text_4">
      <!-- 300 -->
      <defs>
       <path d="M 40.578125 39.3125 
Q 47.65625 37.796875 51.625 33 
Q 55.609375 28.21875 55.609375 21.1875 
Q 55.609375 10.40625 48.1875 4.484375 
Q 40.765625 -1.421875 27.09375 -1.421875 
Q 22.515625 -1.421875 17.65625 -0.515625 
Q 12.796875 0.390625 7.625 2.203125 
L 7.625 11.71875 
Q 11.71875 9.328125 16.59375 8.109375 
Q 21.484375 6.890625 26.8125 6.890625 
Q 36.078125 6.890625 40.9375 10.546875 
Q 45.796875 14.203125 45.796875 21.1875 
Q 45.796875 27.640625 41.28125 31.265625 
Q 36.765625 34.90625 28.71875 34.90625 
L 20.21875 34.90625 
L 20.21875 43.015625 
L 29.109375 43.015625 
Q 36.375 43.015625 40.234375 45.921875 
Q 44.09375 48.828125 44.09375 54.296875 
Q 44.09375 59.90625 40.109375 62.90625 
Q 36.140625 65.921875 28.71875 65.921875 
Q 24.65625 65.921875 20.015625 65.03125 
Q 15.375 64.15625 9.8125 62.3125 
L 9.8125 71.09375 
Q 15.4375 72.65625 20.34375 73.4375 
Q 25.25 74.21875 29.59375 74.21875 
Q 40.828125 74.21875 47.359375 69.109375 
Q 53.90625 64.015625 53.90625 55.328125 
Q 53.90625 49.265625 50.4375 45.09375 
Q 46.96875 40.921875 40.578125 39.3125 
" id="BitstreamVeraSans-Roman-33"/>
      </defs>
      <g transform="translate(310.9775 384.5953125)scale(0.12 -0.12)">
       <use xlink:href="#BitstreamVeraSans-Roman-33"/>
       <use x="63.623046875" xlink:href="#BitstreamVeraSans-Roman-30"/>
       <use x="127.24609375" xlink:href="#BitstreamVeraSans-Roman-30"/>
      </g>
     </g>
    </g>
    <g id="xtick_5">
     <g id="line2d_11">
      <g>
       <use style="stroke:#000000;stroke-width:0.5;" x="411.71" xlink:href="#m5e2b7caad4" y="371.4771875"/>
      </g>
     </g>
     <g id="line2d_12">
      <g>
       <use style="stroke:#000000;stroke-width:0.5;" x="411.71" xlink:href="#m13196267ca" y="25.8771875"/>
      </g>
     </g>
     <g id="text_5">
      <!-- 400 -->
      <defs>
       <path d="M 37.796875 64.3125 
L 12.890625 25.390625 
L 37.796875 25.390625 
z
M 35.203125 72.90625 
L 47.609375 72.90625 
L 47.609375 25.390625 
L 58.015625 25.390625 
L 58.015625 17.1875 
L 47.609375 17.1875 
L 47.609375 0 
L 37.796875 0 
L 37.796875 17.1875 
L 4.890625 17.1875 
L 4.890625 26.703125 
z
" id="BitstreamVeraSans-Roman-34"/>
      </defs>
      <g transform="translate(400.2575 384.5953125)scale(0.12 -0.12)">
       <use xlink:href="#BitstreamVeraSans-Roman-34"/>
       <use x="63.623046875" xlink:href="#BitstreamVeraSans-Roman-30"/>
       <use x="127.24609375" xlink:href="#BitstreamVeraSans-Roman-30"/>
      </g>
     </g>
    </g>
    <g id="xtick_6">
     <g id="line2d_13">
      <g>
       <use style="stroke:#000000;stroke-width:0.5;" x="500.99" xlink:href="#m5e2b7caad4" y="371.4771875"/>
      </g>
     </g>
     <g id="line2d_14">
      <g>
       <use style="stroke:#000000;stroke-width:0.5;" x="500.99" xlink:href="#m13196267ca" y="25.8771875"/>
      </g>
     </g>
     <g id="text_6">
      <!-- 500 -->
      <defs>
       <path d="M 10.796875 72.90625 
L 49.515625 72.90625 
L 49.515625 64.59375 
L 19.828125 64.59375 
L 19.828125 46.734375 
Q 21.96875 47.46875 24.109375 47.828125 
Q 26.265625 48.1875 28.421875 48.1875 
Q 40.625 48.1875 47.75 41.5 
Q 54.890625 34.8125 54.890625 23.390625 
Q 54.890625 11.625 47.5625 5.09375 
Q 40.234375 -1.421875 26.90625 -1.421875 
Q 22.3125 -1.421875 17.546875 -0.640625 
Q 12.796875 0.140625 7.71875 1.703125 
L 7.71875 11.625 
Q 12.109375 9.234375 16.796875 8.0625 
Q 21.484375 6.890625 26.703125 6.890625 
Q 35.15625 6.890625 40.078125 11.328125 
Q 45.015625 15.765625 45.015625 23.390625 
Q 45.015625 31 40.078125 35.4375 
Q 35.15625 39.890625 26.703125 39.890625 
Q 22.75 39.890625 18.8125 39.015625 
Q 14.890625 38.140625 10.796875 36.28125 
z
" id="BitstreamVeraSans-Roman-35"/>
      </defs>
      <g transform="translate(489.5375 384.5953125)scale(0.12 -0.12)">
       <use xlink:href="#BitstreamVeraSans-Roman-35"/>
       <use x="63.623046875" xlink:href="#BitstreamVeraSans-Roman-30"/>
       <use x="127.24609375" xlink:href="#BitstreamVeraSans-Roman-30"/>
      </g>
     </g>
    </g>
    <g id="text_7">
     <!-- Generation No. -->
     <defs>
      <path id="BitstreamVeraSans-Roman-20"/>
      <path d="M 9.8125 72.90625 
L 23.09375 72.90625 
L 55.421875 11.921875 
L 55.421875 72.90625 
L 64.984375 72.90625 
L 64.984375 0 
L 51.703125 0 
L 19.390625 60.984375 
L 19.390625 0 
L 9.8125 0 
z
" id="BitstreamVeraSans-Roman-4e"/>
      <path d="M 54.890625 33.015625 
L 54.890625 0 
L 45.90625 0 
L 45.90625 32.71875 
Q 45.90625 40.484375 42.875 44.328125 
Q 39.84375 48.1875 33.796875 48.1875 
Q 26.515625 48.1875 22.3125 43.546875 
Q 18.109375 38.921875 18.109375 30.90625 
L 18.109375 0 
L 9.078125 0 
L 9.078125 54.6875 
L 18.109375 54.6875 
L 18.109375 46.1875 
Q 21.34375 51.125 25.703125 53.5625 
Q 30.078125 56 35.796875 56 
Q 45.21875 56 50.046875 50.171875 
Q 54.890625 44.34375 54.890625 33.015625 
" id="BitstreamVeraSans-Roman-6e"/>
      <path d="M 41.109375 46.296875 
Q 39.59375 47.171875 37.8125 47.578125 
Q 36.03125 48 33.890625 48 
Q 26.265625 48 22.1875 43.046875 
Q 18.109375 38.09375 18.109375 28.8125 
L 18.109375 0 
L 9.078125 0 
L 9.078125 54.6875 
L 18.109375 54.6875 
L 18.109375 46.1875 
Q 20.953125 51.171875 25.484375 53.578125 
Q 30.03125 56 36.53125 56 
Q 37.453125 56 38.578125 55.875 
Q 39.703125 55.765625 41.0625 55.515625 
z
" id="BitstreamVeraSans-Roman-72"/>
      <path d="M 30.609375 48.390625 
Q 23.390625 48.390625 19.1875 42.75 
Q 14.984375 37.109375 14.984375 27.296875 
Q 14.984375 17.484375 19.15625 11.84375 
Q 23.34375 6.203125 30.609375 6.203125 
Q 37.796875 6.203125 41.984375 11.859375 
Q 46.1875 17.53125 46.1875 27.296875 
Q 46.1875 37.015625 41.984375 42.703125 
Q 37.796875 48.390625 30.609375 48.390625 
M 30.609375 56 
Q 42.328125 56 49.015625 48.375 
Q 55.71875 40.765625 55.71875 27.296875 
Q 55.71875 13.875 49.015625 6.21875 
Q 42.328125 -1.421875 30.609375 -1.421875 
Q 18.84375 -1.421875 12.171875 6.21875 
Q 5.515625 13.875 5.515625 27.296875 
Q 5.515625 40.765625 12.171875 48.375 
Q 18.84375 56 30.609375 56 
" id="BitstreamVeraSans-Roman-6f"/>
      <path d="M 59.515625 10.40625 
L 59.515625 29.984375 
L 43.40625 29.984375 
L 43.40625 38.09375 
L 69.28125 38.09375 
L 69.28125 6.78125 
Q 63.578125 2.734375 56.6875 0.65625 
Q 49.8125 -1.421875 42 -1.421875 
Q 24.90625 -1.421875 15.25 8.5625 
Q 5.609375 18.5625 5.609375 36.375 
Q 5.609375 54.25 15.25 64.234375 
Q 24.90625 74.21875 42 74.21875 
Q 49.125 74.21875 55.546875 72.453125 
Q 61.96875 70.703125 67.390625 67.28125 
L 67.390625 56.78125 
Q 61.921875 61.421875 55.765625 63.765625 
Q 49.609375 66.109375 42.828125 66.109375 
Q 29.4375 66.109375 22.71875 58.640625 
Q 16.015625 51.171875 16.015625 36.375 
Q 16.015625 21.625 22.71875 14.15625 
Q 29.4375 6.6875 42.828125 6.6875 
Q 48.046875 6.6875 52.140625 7.59375 
Q 56.25 8.5 59.515625 10.40625 
" id="BitstreamVeraSans-Roman-47"/>
      <path d="M 9.421875 54.6875 
L 18.40625 54.6875 
L 18.40625 0 
L 9.421875 0 
z
M 9.421875 75.984375 
L 18.40625 75.984375 
L 18.40625 64.59375 
L 9.421875 64.59375 
z
" id="BitstreamVeraSans-Roman-69"/>
      <path d="M 56.203125 29.59375 
L 56.203125 25.203125 
L 14.890625 25.203125 
Q 15.484375 15.921875 20.484375 11.0625 
Q 25.484375 6.203125 34.421875 6.203125 
Q 39.59375 6.203125 44.453125 7.46875 
Q 49.3125 8.734375 54.109375 11.28125 
L 54.109375 2.78125 
Q 49.265625 0.734375 44.1875 -0.34375 
Q 39.109375 -1.421875 33.890625 -1.421875 
Q 20.796875 -1.421875 13.15625 6.1875 
Q 5.515625 13.8125 5.515625 26.8125 
Q 5.515625 40.234375 12.765625 48.109375 
Q 20.015625 56 32.328125 56 
Q 43.359375 56 49.78125 48.890625 
Q 56.203125 41.796875 56.203125 29.59375 
M 47.21875 32.234375 
Q 47.125 39.59375 43.09375 43.984375 
Q 39.0625 48.390625 32.421875 48.390625 
Q 24.90625 48.390625 20.390625 44.140625 
Q 15.875 39.890625 15.1875 32.171875 
z
" id="BitstreamVeraSans-Roman-65"/>
      <path d="M 10.6875 12.40625 
L 21 12.40625 
L 21 0 
L 10.6875 0 
z
" id="BitstreamVeraSans-Roman-2e"/>
      <path d="M 18.3125 70.21875 
L 18.3125 54.6875 
L 36.8125 54.6875 
L 36.8125 47.703125 
L 18.3125 47.703125 
L 18.3125 18.015625 
Q 18.3125 11.328125 20.140625 9.421875 
Q 21.96875 7.515625 27.59375 7.515625 
L 36.8125 7.515625 
L 36.8125 0 
L 27.59375 0 
Q 17.1875 0 13.234375 3.875 
Q 9.28125 7.765625 9.28125 18.015625 
L 9.28125 47.703125 
L 2.6875 47.703125 
L 2.6875 54.6875 
L 9.28125 54.6875 
L 9.28125 70.21875 
z
" id="BitstreamVeraSans-Roman-74"/>
      <path d="M 34.28125 27.484375 
Q 23.390625 27.484375 19.1875 25 
Q 14.984375 22.515625 14.984375 16.5 
Q 14.984375 11.71875 18.140625 8.90625 
Q 21.296875 6.109375 26.703125 6.109375 
Q 34.1875 6.109375 38.703125 11.40625 
Q 43.21875 16.703125 43.21875 25.484375 
L 43.21875 27.484375 
z
M 52.203125 31.203125 
L 52.203125 0 
L 43.21875 0 
L 43.21875 8.296875 
Q 40.140625 3.328125 35.546875 0.953125 
Q 30.953125 -1.421875 24.3125 -1.421875 
Q 15.921875 -1.421875 10.953125 3.296875 
Q 6 8.015625 6 15.921875 
Q 6 25.140625 12.171875 29.828125 
Q 18.359375 34.515625 30.609375 34.515625 
L 43.21875 34.515625 
L 43.21875 35.40625 
Q 43.21875 41.609375 39.140625 45 
Q 35.0625 48.390625 27.6875 48.390625 
Q 23 48.390625 18.546875 47.265625 
Q 14.109375 46.140625 10.015625 43.890625 
L 10.015625 52.203125 
Q 14.9375 54.109375 19.578125 55.046875 
Q 24.21875 56 28.609375 56 
Q 40.484375 56 46.34375 49.84375 
Q 52.203125 43.703125 52.203125 31.203125 
" id="BitstreamVeraSans-Roman-61"/>
     </defs>
     <g transform="translate(217.1975 404.2484375)scale(0.16 -0.16)">
      <use xlink:href="#BitstreamVeraSans-Roman-47"/>
      <use x="77.490234375" xlink:href="#BitstreamVeraSans-Roman-65"/>
      <use x="139.013671875" xlink:href="#BitstreamVeraSans-Roman-6e"/>
      <use x="202.392578125" xlink:href="#BitstreamVeraSans-Roman-65"/>
      <use x="263.916015625" xlink:href="#BitstreamVeraSans-Roman-72"/>
      <use x="305.029296875" xlink:href="#BitstreamVeraSans-Roman-61"/>
      <use x="366.30859375" xlink:href="#BitstreamVeraSans-Roman-74"/>
      <use x="405.517578125" xlink:href="#BitstreamVeraSans-Roman-69"/>
      <use x="433.30078125" xlink:href="#BitstreamVeraSans-Roman-6f"/>
      <use x="494.482421875" xlink:href="#BitstreamVeraSans-Roman-6e"/>
      <use x="557.861328125" xlink:href="#BitstreamVeraSans-Roman-20"/>
      <use x="589.6484375" xlink:href="#BitstreamVeraSans-Roman-4e"/>
      <use x="664.453125" xlink:href="#BitstreamVeraSans-Roman-6f"/>
      <use x="725.619140625" xlink:href="#BitstreamVeraSans-Roman-2e"/>
     </g>
    </g>
   </g>
   <g id="matplotlib.axis_2">
    <g id="ytick_1">
     <g id="line2d_15">
      <defs>
       <path d="M 0 0 
L 4 0 
" id="m7ba11f66aa" style="stroke:#000000;stroke-width:0.5;"/>
      </defs>
      <g>
       <use style="stroke:#000000;stroke-width:0.5;" x="54.59" xlink:href="#m7ba11f66aa" y="371.4771875"/>
      </g>
     </g>
     <g id="line2d_16">
      <defs>
       <path d="M 0 0 
L -4 0 
" id="mc8cd99aee6" style="stroke:#000000;stroke-width:0.5;"/>
      </defs>
      <g>
       <use style="stroke:#000000;stroke-width:0.5;" x="500.99" xlink:href="#mc8cd99aee6" y="371.4771875"/>
      </g>
     </g>
     <g id="text_8">
      <!-- 230 -->
      <g transform="translate(27.685 374.7884375)scale(0.12 -0.12)">
       <use xlink:href="#BitstreamVeraSans-Roman-32"/>
       <use x="63.623046875" xlink:href="#BitstreamVeraSans-Roman-33"/>
       <use x="127.24609375" xlink:href="#BitstreamVeraSans-Roman-30"/>
      </g>
     </g>
    </g>
    <g id="ytick_2">
     <g id="line2d_17">
      <g>
       <use style="stroke:#000000;stroke-width:0.5;" x="54.59" xlink:href="#m7ba11f66aa" y="333.0771875"/>
      </g>
     </g>
     <g id="line2d_18">
      <g>
       <use style="stroke:#000000;stroke-width:0.5;" x="500.99" xlink:href="#mc8cd99aee6" y="333.0771875"/>
      </g>
     </g>
     <g id="text_9">
      <!-- 240 -->
      <g transform="translate(27.685 336.3884375)scale(0.12 -0.12)">
       <use xlink:href="#BitstreamVeraSans-Roman-32"/>
       <use x="63.623046875" xlink:href="#BitstreamVeraSans-Roman-34"/>
       <use x="127.24609375" xlink:href="#BitstreamVeraSans-Roman-30"/>
      </g>
     </g>
    </g>
    <g id="ytick_3">
     <g id="line2d_19">
      <g>
       <use style="stroke:#000000;stroke-width:0.5;" x="54.59" xlink:href="#m7ba11f66aa" y="294.6771875"/>
      </g>
     </g>
     <g id="line2d_20">
      <g>
       <use style="stroke:#000000;stroke-width:0.5;" x="500.99" xlink:href="#mc8cd99aee6" y="294.6771875"/>
      </g>
     </g>
     <g id="text_10">
      <!-- 250 -->
      <g transform="translate(27.685 297.9884375)scale(0.12 -0.12)">
       <use xlink:href="#BitstreamVeraSans-Roman-32"/>
       <use x="63.623046875" xlink:href="#BitstreamVeraSans-Roman-35"/>
       <use x="127.24609375" xlink:href="#BitstreamVeraSans-Roman-30"/>
      </g>
     </g>
    </g>
    <g id="ytick_4">
     <g id="line2d_21">
      <g>
       <use style="stroke:#000000;stroke-width:0.5;" x="54.59" xlink:href="#m7ba11f66aa" y="256.2771875"/>
      </g>
     </g>
     <g id="line2d_22">
      <g>
       <use style="stroke:#000000;stroke-width:0.5;" x="500.99" xlink:href="#mc8cd99aee6" y="256.2771875"/>
      </g>
     </g>
     <g id="text_11">
      <!-- 260 -->
      <defs>
       <path d="M 33.015625 40.375 
Q 26.375 40.375 22.484375 35.828125 
Q 18.609375 31.296875 18.609375 23.390625 
Q 18.609375 15.53125 22.484375 10.953125 
Q 26.375 6.390625 33.015625 6.390625 
Q 39.65625 6.390625 43.53125 10.953125 
Q 47.40625 15.53125 47.40625 23.390625 
Q 47.40625 31.296875 43.53125 35.828125 
Q 39.65625 40.375 33.015625 40.375 
M 52.59375 71.296875 
L 52.59375 62.3125 
Q 48.875 64.0625 45.09375 64.984375 
Q 41.3125 65.921875 37.59375 65.921875 
Q 27.828125 65.921875 22.671875 59.328125 
Q 17.53125 52.734375 16.796875 39.40625 
Q 19.671875 43.65625 24.015625 45.921875 
Q 28.375 48.1875 33.59375 48.1875 
Q 44.578125 48.1875 50.953125 41.515625 
Q 57.328125 34.859375 57.328125 23.390625 
Q 57.328125 12.15625 50.6875 5.359375 
Q 44.046875 -1.421875 33.015625 -1.421875 
Q 20.359375 -1.421875 13.671875 8.265625 
Q 6.984375 17.96875 6.984375 36.375 
Q 6.984375 53.65625 15.1875 63.9375 
Q 23.390625 74.21875 37.203125 74.21875 
Q 40.921875 74.21875 44.703125 73.484375 
Q 48.484375 72.75 52.59375 71.296875 
" id="BitstreamVeraSans-Roman-36"/>
      </defs>
      <g transform="translate(27.685 259.5884375)scale(0.12 -0.12)">
       <use xlink:href="#BitstreamVeraSans-Roman-32"/>
       <use x="63.623046875" xlink:href="#BitstreamVeraSans-Roman-36"/>
       <use x="127.24609375" xlink:href="#BitstreamVeraSans-Roman-30"/>
      </g>
     </g>
    </g>
    <g id="ytick_5">
     <g id="line2d_23">
      <g>
       <use style="stroke:#000000;stroke-width:0.5;" x="54.59" xlink:href="#m7ba11f66aa" y="217.8771875"/>
      </g>
     </g>
     <g id="line2d_24">
      <g>
       <use style="stroke:#000000;stroke-width:0.5;" x="500.99" xlink:href="#mc8cd99aee6" y="217.8771875"/>
      </g>
     </g>
     <g id="text_12">
      <!-- 270 -->
      <defs>
       <path d="M 8.203125 72.90625 
L 55.078125 72.90625 
L 55.078125 68.703125 
L 28.609375 0 
L 18.3125 0 
L 43.21875 64.59375 
L 8.203125 64.59375 
z
" id="BitstreamVeraSans-Roman-37"/>
      </defs>
      <g transform="translate(27.685 221.1884375)scale(0.12 -0.12)">
       <use xlink:href="#BitstreamVeraSans-Roman-32"/>
       <use x="63.623046875" xlink:href="#BitstreamVeraSans-Roman-37"/>
       <use x="127.24609375" xlink:href="#BitstreamVeraSans-Roman-30"/>
      </g>
     </g>
    </g>
    <g id="ytick_6">
     <g id="line2d_25">
      <g>
       <use style="stroke:#000000;stroke-width:0.5;" x="54.59" xlink:href="#m7ba11f66aa" y="179.4771875"/>
      </g>
     </g>
     <g id="line2d_26">
      <g>
       <use style="stroke:#000000;stroke-width:0.5;" x="500.99" xlink:href="#mc8cd99aee6" y="179.4771875"/>
      </g>
     </g>
     <g id="text_13">
      <!-- 280 -->
      <defs>
       <path d="M 31.78125 34.625 
Q 24.75 34.625 20.71875 30.859375 
Q 16.703125 27.09375 16.703125 20.515625 
Q 16.703125 13.921875 20.71875 10.15625 
Q 24.75 6.390625 31.78125 6.390625 
Q 38.8125 6.390625 42.859375 10.171875 
Q 46.921875 13.96875 46.921875 20.515625 
Q 46.921875 27.09375 42.890625 30.859375 
Q 38.875 34.625 31.78125 34.625 
M 21.921875 38.8125 
Q 15.578125 40.375 12.03125 44.71875 
Q 8.5 49.078125 8.5 55.328125 
Q 8.5 64.0625 14.71875 69.140625 
Q 20.953125 74.21875 31.78125 74.21875 
Q 42.671875 74.21875 48.875 69.140625 
Q 55.078125 64.0625 55.078125 55.328125 
Q 55.078125 49.078125 51.53125 44.71875 
Q 48 40.375 41.703125 38.8125 
Q 48.828125 37.15625 52.796875 32.3125 
Q 56.78125 27.484375 56.78125 20.515625 
Q 56.78125 9.90625 50.3125 4.234375 
Q 43.84375 -1.421875 31.78125 -1.421875 
Q 19.734375 -1.421875 13.25 4.234375 
Q 6.78125 9.90625 6.78125 20.515625 
Q 6.78125 27.484375 10.78125 32.3125 
Q 14.796875 37.15625 21.921875 38.8125 
M 18.3125 54.390625 
Q 18.3125 48.734375 21.84375 45.5625 
Q 25.390625 42.390625 31.78125 42.390625 
Q 38.140625 42.390625 41.71875 45.5625 
Q 45.3125 48.734375 45.3125 54.390625 
Q 45.3125 60.0625 41.71875 63.234375 
Q 38.140625 66.40625 31.78125 66.40625 
Q 25.390625 66.40625 21.84375 63.234375 
Q 18.3125 60.0625 18.3125 54.390625 
" id="BitstreamVeraSans-Roman-38"/>
      </defs>
      <g transform="translate(27.685 182.7884375)scale(0.12 -0.12)">
       <use xlink:href="#BitstreamVeraSans-Roman-32"/>
       <use x="63.623046875" xlink:href="#BitstreamVeraSans-Roman-38"/>
       <use x="127.24609375" xlink:href="#BitstreamVeraSans-Roman-30"/>
      </g>
     </g>
    </g>
    <g id="ytick_7">
     <g id="line2d_27">
      <g>
       <use style="stroke:#000000;stroke-width:0.5;" x="54.59" xlink:href="#m7ba11f66aa" y="141.0771875"/>
      </g>
     </g>
     <g id="line2d_28">
      <g>
       <use style="stroke:#000000;stroke-width:0.5;" x="500.99" xlink:href="#mc8cd99aee6" y="141.0771875"/>
      </g>
     </g>
     <g id="text_14">
      <!-- 290 -->
      <defs>
       <path d="M 10.984375 1.515625 
L 10.984375 10.5 
Q 14.703125 8.734375 18.5 7.8125 
Q 22.3125 6.890625 25.984375 6.890625 
Q 35.75 6.890625 40.890625 13.453125 
Q 46.046875 20.015625 46.78125 33.40625 
Q 43.953125 29.203125 39.59375 26.953125 
Q 35.25 24.703125 29.984375 24.703125 
Q 19.046875 24.703125 12.671875 31.3125 
Q 6.296875 37.9375 6.296875 49.421875 
Q 6.296875 60.640625 12.9375 67.421875 
Q 19.578125 74.21875 30.609375 74.21875 
Q 43.265625 74.21875 49.921875 64.515625 
Q 56.59375 54.828125 56.59375 36.375 
Q 56.59375 19.140625 48.40625 8.859375 
Q 40.234375 -1.421875 26.421875 -1.421875 
Q 22.703125 -1.421875 18.890625 -0.6875 
Q 15.09375 0.046875 10.984375 1.515625 
M 30.609375 32.421875 
Q 37.25 32.421875 41.125 36.953125 
Q 45.015625 41.5 45.015625 49.421875 
Q 45.015625 57.28125 41.125 61.84375 
Q 37.25 66.40625 30.609375 66.40625 
Q 23.96875 66.40625 20.09375 61.84375 
Q 16.21875 57.28125 16.21875 49.421875 
Q 16.21875 41.5 20.09375 36.953125 
Q 23.96875 32.421875 30.609375 32.421875 
" id="BitstreamVeraSans-Roman-39"/>
      </defs>
      <g transform="translate(27.685 144.3884375)scale(0.12 -0.12)">
       <use xlink:href="#BitstreamVeraSans-Roman-32"/>
       <use x="63.623046875" xlink:href="#BitstreamVeraSans-Roman-39"/>
       <use x="127.24609375" xlink:href="#BitstreamVeraSans-Roman-30"/>
      </g>
     </g>
    </g>
    <g id="ytick_8">
     <g id="line2d_29">
      <g>
       <use style="stroke:#000000;stroke-width:0.5;" x="54.59" xlink:href="#m7ba11f66aa" y="102.6771875"/>
      </g>
     </g>
     <g id="line2d_30">
      <g>
       <use style="stroke:#000000;stroke-width:0.5;" x="500.99" xlink:href="#mc8cd99aee6" y="102.6771875"/>
      </g>
     </g>
     <g id="text_15">
      <!-- 300 -->
      <g transform="translate(27.685 105.9884375)scale(0.12 -0.12)">
       <use xlink:href="#BitstreamVeraSans-Roman-33"/>
       <use x="63.623046875" xlink:href="#BitstreamVeraSans-Roman-30"/>
       <use x="127.24609375" xlink:href="#BitstreamVeraSans-Roman-30"/>
      </g>
     </g>
    </g>
    <g id="ytick_9">
     <g id="line2d_31">
      <g>
       <use style="stroke:#000000;stroke-width:0.5;" x="54.59" xlink:href="#m7ba11f66aa" y="64.2771875"/>
      </g>
     </g>
     <g id="line2d_32">
      <g>
       <use style="stroke:#000000;stroke-width:0.5;" x="500.99" xlink:href="#mc8cd99aee6" y="64.2771875"/>
      </g>
     </g>
     <g id="text_16">
      <!-- 310 -->
      <g transform="translate(27.685 67.5884375)scale(0.12 -0.12)">
       <use xlink:href="#BitstreamVeraSans-Roman-33"/>
       <use x="63.623046875" xlink:href="#BitstreamVeraSans-Roman-31"/>
       <use x="127.24609375" xlink:href="#BitstreamVeraSans-Roman-30"/>
      </g>
     </g>
    </g>
    <g id="ytick_10">
     <g id="line2d_33">
      <g>
       <use style="stroke:#000000;stroke-width:0.5;" x="54.59" xlink:href="#m7ba11f66aa" y="25.8771875"/>
      </g>
     </g>
     <g id="line2d_34">
      <g>
       <use style="stroke:#000000;stroke-width:0.5;" x="500.99" xlink:href="#mc8cd99aee6" y="25.8771875"/>
      </g>
     </g>
     <g id="text_17">
      <!-- 320 -->
      <g transform="translate(27.685 29.1884375)scale(0.12 -0.12)">
       <use xlink:href="#BitstreamVeraSans-Roman-33"/>
       <use x="63.623046875" xlink:href="#BitstreamVeraSans-Roman-32"/>
       <use x="127.24609375" xlink:href="#BitstreamVeraSans-Roman-30"/>
      </g>
     </g>
    </g>
    <g id="text_18">
     <!-- Fitness -->
     <defs>
      <path d="M 9.8125 72.90625 
L 51.703125 72.90625 
L 51.703125 64.59375 
L 19.671875 64.59375 
L 19.671875 43.109375 
L 48.578125 43.109375 
L 48.578125 34.8125 
L 19.671875 34.8125 
L 19.671875 0 
L 9.8125 0 
z
" id="BitstreamVeraSans-Roman-46"/>
      <path d="M 44.28125 53.078125 
L 44.28125 44.578125 
Q 40.484375 46.53125 36.375 47.5 
Q 32.28125 48.484375 27.875 48.484375 
Q 21.1875 48.484375 17.84375 46.4375 
Q 14.5 44.390625 14.5 40.28125 
Q 14.5 37.15625 16.890625 35.375 
Q 19.28125 33.59375 26.515625 31.984375 
L 29.59375 31.296875 
Q 39.15625 29.25 43.1875 25.515625 
Q 47.21875 21.78125 47.21875 15.09375 
Q 47.21875 7.46875 41.1875 3.015625 
Q 35.15625 -1.421875 24.609375 -1.421875 
Q 20.21875 -1.421875 15.453125 -0.5625 
Q 10.6875 0.296875 5.421875 2 
L 5.421875 11.28125 
Q 10.40625 8.6875 15.234375 7.390625 
Q 20.0625 6.109375 24.8125 6.109375 
Q 31.15625 6.109375 34.5625 8.28125 
Q 37.984375 10.453125 37.984375 14.40625 
Q 37.984375 18.0625 35.515625 20.015625 
Q 33.0625 21.96875 24.703125 23.78125 
L 21.578125 24.515625 
Q 13.234375 26.265625 9.515625 29.90625 
Q 5.8125 33.546875 5.8125 39.890625 
Q 5.8125 47.609375 11.28125 51.796875 
Q 16.75 56 26.8125 56 
Q 31.78125 56 36.171875 55.265625 
Q 40.578125 54.546875 44.28125 53.078125 
" id="BitstreamVeraSans-Roman-73"/>
     </defs>
     <g transform="translate(19.3575 226.9559375)rotate(-90.0)scale(0.16 -0.16)">
      <use xlink:href="#BitstreamVeraSans-Roman-46"/>
      <use x="57.41015625" xlink:href="#BitstreamVeraSans-Roman-69"/>
      <use x="85.193359375" xlink:href="#BitstreamVeraSans-Roman-74"/>
      <use x="124.40234375" xlink:href="#BitstreamVeraSans-Roman-6e"/>
      <use x="187.78125" xlink:href="#BitstreamVeraSans-Roman-65"/>
      <use x="249.3046875" xlink:href="#BitstreamVeraSans-Roman-73"/>
      <use x="301.404296875" xlink:href="#BitstreamVeraSans-Roman-73"/>
     </g>
    </g>
   </g>
   <g id="text_19">
    <!-- Fitness during Evolution -->
    <defs>
     <path d="M 9.421875 75.984375 
L 18.40625 75.984375 
L 18.40625 0 
L 9.421875 0 
z
" id="BitstreamVeraSans-Roman-6c"/>
     <path d="M 9.8125 72.90625 
L 55.90625 72.90625 
L 55.90625 64.59375 
L 19.671875 64.59375 
L 19.671875 43.015625 
L 54.390625 43.015625 
L 54.390625 34.71875 
L 19.671875 34.71875 
L 19.671875 8.296875 
L 56.78125 8.296875 
L 56.78125 0 
L 9.8125 0 
z
" id="BitstreamVeraSans-Roman-45"/>
     <path d="M 2.984375 54.6875 
L 12.5 54.6875 
L 29.59375 8.796875 
L 46.6875 54.6875 
L 56.203125 54.6875 
L 35.6875 0 
L 23.484375 0 
z
" id="BitstreamVeraSans-Roman-76"/>
     <path d="M 45.40625 46.390625 
L 45.40625 75.984375 
L 54.390625 75.984375 
L 54.390625 0 
L 45.40625 0 
L 45.40625 8.203125 
Q 42.578125 3.328125 38.25 0.953125 
Q 33.9375 -1.421875 27.875 -1.421875 
Q 17.96875 -1.421875 11.734375 6.484375 
Q 5.515625 14.40625 5.515625 27.296875 
Q 5.515625 40.1875 11.734375 48.09375 
Q 17.96875 56 27.875 56 
Q 33.9375 56 38.25 53.625 
Q 42.578125 51.265625 45.40625 46.390625 
M 14.796875 27.296875 
Q 14.796875 17.390625 18.875 11.75 
Q 22.953125 6.109375 30.078125 6.109375 
Q 37.203125 6.109375 41.296875 11.75 
Q 45.40625 17.390625 45.40625 27.296875 
Q 45.40625 37.203125 41.296875 42.84375 
Q 37.203125 48.484375 30.078125 48.484375 
Q 22.953125 48.484375 18.875 42.84375 
Q 14.796875 37.203125 14.796875 27.296875 
" id="BitstreamVeraSans-Roman-64"/>
     <path d="M 45.40625 27.984375 
Q 45.40625 37.75 41.375 43.109375 
Q 37.359375 48.484375 30.078125 48.484375 
Q 22.859375 48.484375 18.828125 43.109375 
Q 14.796875 37.75 14.796875 27.984375 
Q 14.796875 18.265625 18.828125 12.890625 
Q 22.859375 7.515625 30.078125 7.515625 
Q 37.359375 7.515625 41.375 12.890625 
Q 45.40625 18.265625 45.40625 27.984375 
M 54.390625 6.78125 
Q 54.390625 -7.171875 48.1875 -13.984375 
Q 42 -20.796875 29.203125 -20.796875 
Q 24.46875 -20.796875 20.265625 -20.09375 
Q 16.0625 -19.390625 12.109375 -17.921875 
L 12.109375 -9.1875 
Q 16.0625 -11.328125 19.921875 -12.34375 
Q 23.78125 -13.375 27.78125 -13.375 
Q 36.625 -13.375 41.015625 -8.765625 
Q 45.40625 -4.15625 45.40625 5.171875 
L 45.40625 9.625 
Q 42.625 4.78125 38.28125 2.390625 
Q 33.9375 0 27.875 0 
Q 17.828125 0 11.671875 7.65625 
Q 5.515625 15.328125 5.515625 27.984375 
Q 5.515625 40.671875 11.671875 48.328125 
Q 17.828125 56 27.875 56 
Q 33.9375 56 38.28125 53.609375 
Q 42.625 51.21875 45.40625 46.390625 
L 45.40625 54.6875 
L 54.390625 54.6875 
z
" id="BitstreamVeraSans-Roman-67"/>
     <path d="M 8.5 21.578125 
L 8.5 54.6875 
L 17.484375 54.6875 
L 17.484375 21.921875 
Q 17.484375 14.15625 20.5 10.265625 
Q 23.53125 6.390625 29.59375 6.390625 
Q 36.859375 6.390625 41.078125 11.03125 
Q 45.3125 15.671875 45.3125 23.6875 
L 45.3125 54.6875 
L 54.296875 54.6875 
L 54.296875 0 
L 45.3125 0 
L 45.3125 8.40625 
Q 42.046875 3.421875 37.71875 1 
Q 33.40625 -1.421875 27.6875 -1.421875 
Q 18.265625 -1.421875 13.375 4.4375 
Q 8.5 10.296875 8.5 21.578125 
" id="BitstreamVeraSans-Roman-75"/>
    </defs>
    <g transform="translate(169.25703125 20.8771875)scale(0.18 -0.18)">
     <use xlink:href="#BitstreamVeraSans-Roman-46"/>
     <use x="57.41015625" xlink:href="#BitstreamVeraSans-Roman-69"/>
     <use x="85.193359375" xlink:href="#BitstreamVeraSans-Roman-74"/>
     <use x="124.40234375" xlink:href="#BitstreamVeraSans-Roman-6e"/>
     <use x="187.78125" xlink:href="#BitstreamVeraSans-Roman-65"/>
     <use x="249.3046875" xlink:href="#BitstreamVeraSans-Roman-73"/>
     <use x="301.404296875" xlink:href="#BitstreamVeraSans-Roman-73"/>
     <use x="353.50390625" xlink:href="#BitstreamVeraSans-Roman-20"/>
     <use x="385.291015625" xlink:href="#BitstreamVeraSans-Roman-64"/>
     <use x="448.767578125" xlink:href="#BitstreamVeraSans-Roman-75"/>
     <use x="512.146484375" xlink:href="#BitstreamVeraSans-Roman-72"/>
     <use x="553.259765625" xlink:href="#BitstreamVeraSans-Roman-69"/>
     <use x="581.04296875" xlink:href="#BitstreamVeraSans-Roman-6e"/>
     <use x="644.421875" xlink:href="#BitstreamVeraSans-Roman-67"/>
     <use x="707.8984375" xlink:href="#BitstreamVeraSans-Roman-20"/>
     <use x="739.685546875" xlink:href="#BitstreamVeraSans-Roman-45"/>
     <use x="802.869140625" xlink:href="#BitstreamVeraSans-Roman-76"/>
     <use x="862.048828125" xlink:href="#BitstreamVeraSans-Roman-6f"/>
     <use x="923.23046875" xlink:href="#BitstreamVeraSans-Roman-6c"/>
     <use x="951.013671875" xlink:href="#BitstreamVeraSans-Roman-75"/>
     <use x="1014.39257812" xlink:href="#BitstreamVeraSans-Roman-74"/>
     <use x="1053.6015625" xlink:href="#BitstreamVeraSans-Roman-69"/>
     <use x="1081.38476562" xlink:href="#BitstreamVeraSans-Roman-6f"/>
     <use x="1142.56640625" xlink:href="#BitstreamVeraSans-Roman-6e"/>
    </g>
   </g>
  </g>
 </g>
 <defs>
  <clipPath id="p8372c028bd">
   <rect height="345.6" width="446.4" x="54.59" y="25.8771875"/>
  </clipPath>
 </defs>
</svg>
